<svg xmlns="http://www.w3.org/2000/svg" width="18" height="18" viewBox="0 0 18 18" fill="none">
<path fill-rule="evenodd" clip-rule="evenodd" d="M15.6288 4.21549C15.8241 4.41083 15.9338 4.67574 15.9338 4.95195C15.9338 5.22816 15.8241 5.49306 15.6288 5.68841L7.82119 13.496C7.71801 13.5992 7.59552 13.6811 7.46069 13.737C7.32587 13.7928 7.18136 13.8216 7.03543 13.8216C6.8895 13.8216 6.74499 13.7928 6.61017 13.737C6.47534 13.6811 6.35285 13.5992 6.24967 13.496L2.3705 9.61757C2.27101 9.52148 2.19165 9.40654 2.13706 9.27945C2.08247 9.15236 2.05373 9.01568 2.05253 8.87737C2.05133 8.73905 2.07768 8.60189 2.13006 8.47387C2.18244 8.34585 2.25978 8.22955 2.35759 8.13174C2.45539 8.03394 2.5717 7.95659 2.69971 7.90422C2.82773 7.85184 2.9649 7.82548 3.10321 7.82669C3.24152 7.82789 3.37821 7.85662 3.5053 7.91122C3.63238 7.96581 3.74733 8.04517 3.84342 8.14466L7.03508 11.3363L14.1552 4.21549C14.252 4.11869 14.3668 4.0419 14.4932 3.98951C14.6197 3.93712 14.7552 3.91016 14.892 3.91016C15.0289 3.91016 15.1644 3.93712 15.2908 3.98951C15.4172 4.0419 15.5321 4.11869 15.6288 4.21549Z" fill="#F5F5F5"/>
</svg>